<svg width="36" height="36" viewBox="0 0 36 36" fill="none" xmlns="http://www.w3.org/2000/svg">
<mask id="mask0_16011_8656" style="mask-type:alpha" maskUnits="userSpaceOnUse" x="0" y="0" width="36" height="36">
<rect width="36" height="36" fill="#D9D9D9"/>
</mask>
<g mask="url(#mask0_16011_8656)">
<rect width="36" height="36" rx="18" fill="#FDC700"/>
</g>
<g clip-path="url(#clip0_16011_8656)">
<path d="M23 26.3333H11.3333C10.8913 26.3333 10.4673 26.1577 10.1548 25.8452C9.84222 25.5326 9.66663 25.1087 9.66663 24.6667V13" stroke="white" stroke-width="1.99911" stroke-linecap="round" stroke-linejoin="round"/>
<path d="M26.3333 18.8334L25.2533 17.7534C24.8767 17.3768 24.3659 17.1653 23.8333 17.1653C23.3007 17.1653 22.7899 17.3768 22.4133 17.7534L17.1666 23.0001" stroke="white" stroke-width="1.99911" stroke-linecap="round" stroke-linejoin="round"/>
<path d="M18 16.3333C18.9205 16.3333 19.6667 15.5871 19.6667 14.6667C19.6667 13.7462 18.9205 13 18 13C17.0796 13 16.3334 13.7462 16.3334 14.6667C16.3334 15.5871 17.0796 16.3333 18 16.3333Z" stroke="white" stroke-width="1.99911" stroke-linecap="round" stroke-linejoin="round"/>
<path d="M24.6667 9.66675H14.6667C13.7462 9.66675 13 10.4129 13 11.3334V21.3334C13 22.2539 13.7462 23.0001 14.6667 23.0001H24.6667C25.5871 23.0001 26.3333 22.2539 26.3333 21.3334V11.3334C26.3333 10.4129 25.5871 9.66675 24.6667 9.66675Z" stroke="white" stroke-width="1.99911" stroke-linecap="round" stroke-linejoin="round"/>
</g>
<defs>
<clipPath id="clip0_16011_8656">
<rect width="20" height="20" fill="white" transform="translate(8 8)"/>
</clipPath>
</defs>
</svg>
