<svg width="36" height="36" viewBox="0 0 36 36" fill="none" xmlns="http://www.w3.org/2000/svg">
<mask id="mask0_16011_8640" style="mask-type:alpha" maskUnits="userSpaceOnUse" x="0" y="0" width="36" height="36">
<rect width="36" height="36" fill="#D9D9D9"/>
</mask>
<g mask="url(#mask0_16011_8640)">
<rect width="36" height="36" rx="18" fill="#403232"/>
</g>
<path d="M14.6666 9.66675V13.0001" stroke="#E0E0E0" stroke-width="1.99911" stroke-linecap="round" stroke-linejoin="round"/>
<path d="M21.3334 9.66675V13.0001" stroke="#E0E0E0" stroke-width="1.99911" stroke-linecap="round" stroke-linejoin="round"/>
<path d="M23.8333 11.3333H12.1667C11.2462 11.3333 10.5 12.0794 10.5 12.9999V24.6666C10.5 25.5871 11.2462 26.3333 12.1667 26.3333H23.8333C24.7538 26.3333 25.5 25.5871 25.5 24.6666V12.9999C25.5 12.0794 24.7538 11.3333 23.8333 11.3333Z" stroke="#E0E0E0" stroke-width="1.99911" stroke-linecap="round" stroke-linejoin="round"/>
<path d="M10.5 16.3333H25.5" stroke="#E0E0E0" stroke-width="1.99911" stroke-linecap="round" stroke-linejoin="round"/>
<path d="M14.6666 19.6667H14.675" stroke="#E0E0E0" stroke-width="1.99911" stroke-linecap="round" stroke-linejoin="round"/>
<path d="M18 19.6667H18.0083" stroke="#E0E0E0" stroke-width="1.99911" stroke-linecap="round" stroke-linejoin="round"/>
<path d="M21.3334 19.6667H21.3417" stroke="#E0E0E0" stroke-width="1.99911" stroke-linecap="round" stroke-linejoin="round"/>
<path d="M14.6666 23H14.675" stroke="#E0E0E0" stroke-width="1.99911" stroke-linecap="round" stroke-linejoin="round"/>
<path d="M18 23H18.0083" stroke="#E0E0E0" stroke-width="1.99911" stroke-linecap="round" stroke-linejoin="round"/>
<path d="M21.3334 23H21.3417" stroke="#E0E0E0" stroke-width="1.99911" stroke-linecap="round" stroke-linejoin="round"/>
</svg>
